# xmcd CD database file
#
# Track frame offsets:
#	150
#	15745
#	44268
#	63708
#	79229
#	99762
#	127789
#	150110
#	168098
#
# Disc length: 2616 seconds
#
# Revision: 0
# Processed by: cddbd v1.5.2PL0 Copyright (c) Steve Scherf et al.
# Submitted via: CDex 1.70beta2
#
DISCID=5a0a3609
DTITLE=Rocio Faks - Everness
DYEAR=1900
DGENRE=Jazz
TTITLE0=Los enigmas
TTITLE1=Bicho solto
TTITLE2=Eu nao existo sem voce
TTITLE3=Durazno sangrando
TTITLE4=E luxo so
TTITLE5=Everness
TTITLE6=Zamba del laurel
TTITLE7=Bebe
TTITLE8=O bem do mar
EXTD=
EXTT0=
EXTT1=
EXTT2=
EXTT3=
EXTT4=
EXTT5=
EXTT6=
EXTT7=
EXTT8=
PLAYORDER=
